<svg xmlns="http://www.w3.org/2000/svg" xmlns:xlink="http://www.w3.org/1999/xlink" width="1920" height="1080" viewBox="0 0 1920 1080">
  <defs>
    <clipPath id="clip-path">
      <rect id="Rectangle_207" data-name="Rectangle 207" width="1920" height="1080" fill="#fff" stroke="#707070" stroke-width="1"/>
    </clipPath>
  </defs>
  <g id="Mask_Group_12" data-name="Mask Group 12" clip-path="url(#clip-path)">
    <g id="Floor" transform="translate(-476 410)">
      <path id="Floor-2" data-name="Floor" d="M392.38,0c136.957,0,14.127,178.839,163.161,269.52s260.291,68.8,258.313,223c0,247.649-204.768,404.295-421.474,404.295S0,696.057,0,448.408,175.675,0,392.38,0Z" fill="#f0f0f0"/>
    </g>
    <g id="Group_148" data-name="Group 148" transform="translate(1357.762 335)">
      <g id="Background_Complete" data-name="Background Complete" transform="translate(46.238 93)">
        <g id="Group_144" data-name="Group 144">
          <g id="Group_136" data-name="Group 136" transform="translate(0 229.254)">
            <rect id="Rectangle_12" data-name="Rectangle 12" width="48.507" height="167.875" transform="translate(0 264.986)" fill="#fafafa"/>
            <rect id="Rectangle_13" data-name="Rectangle 13" width="48.507" height="131.051" transform="translate(42.478 301.809)" fill="#fafafa"/>
            <rect id="Rectangle_14" data-name="Rectangle 14" width="48.508" height="239.048" transform="translate(73.496 193.813)" fill="#fafafa"/>
            <rect id="Rectangle_15" data-name="Rectangle 15" width="48.507" height="432.861" transform="translate(105.732)" fill="#fafafa"/>
            <rect id="Rectangle_16" data-name="Rectangle 16" width="130.166" height="399.168" transform="translate(144.052 33.693)" fill="#fafafa"/>
          </g>
          <g id="Group_137" data-name="Group 137" transform="translate(659.453 365.856)">
            <rect id="Rectangle_17" data-name="Rectangle 17" width="55.421" height="114.897" transform="translate(176.222 296.259) rotate(180)" fill="#fafafa"/>
            <rect id="Rectangle_18" data-name="Rectangle 18" width="55.421" height="89.694" transform="translate(127.69 296.259) rotate(180)" fill="#fafafa"/>
            <rect id="Rectangle_19" data-name="Rectangle 19" width="55.421" height="163.609" transform="translate(92.251 296.259) rotate(180)" fill="#fafafa"/>
            <rect id="Rectangle_20" data-name="Rectangle 20" width="55.421" height="296.259" transform="translate(55.421 296.259) rotate(180)" fill="#fafafa"/>
          </g>
          <g id="Group_143" data-name="Group 143" transform="translate(119.675)">
            <g id="Group_139" data-name="Group 139" transform="translate(399.517 300.202)">
              <rect id="Rectangle_21" data-name="Rectangle 21" width="170.065" height="361.912" fill="#f0f0f0"/>
              <g id="Group_138" data-name="Group 138" transform="translate(30.991 15.168)">
                <rect id="Rectangle_22" data-name="Rectangle 22" width="8.098" height="44.042" transform="translate(114.779)" fill="#f5f5f5"/>
                <rect id="Rectangle_23" data-name="Rectangle 23" width="8.098" height="44.042" transform="translate(114.779 68.873)" fill="#f5f5f5"/>
                <rect id="Rectangle_24" data-name="Rectangle 24" width="8.098" height="44.042" transform="translate(114.779 137.747)" fill="#f5f5f5"/>
                <rect id="Rectangle_25" data-name="Rectangle 25" width="8.098" height="44.042" transform="translate(114.779 206.62)" fill="#f5f5f5"/>
                <rect id="Rectangle_26" data-name="Rectangle 26" width="8.098" height="44.042" transform="translate(114.779 275.493)" fill="#f5f5f5"/>
                <rect id="Rectangle_27" data-name="Rectangle 27" width="8.098" height="44.042" transform="translate(86.085)" fill="#f5f5f5"/>
                <rect id="Rectangle_28" data-name="Rectangle 28" width="8.098" height="44.042" transform="translate(86.085 68.873)" fill="#f5f5f5"/>
                <rect id="Rectangle_29" data-name="Rectangle 29" width="8.098" height="44.042" transform="translate(86.085 137.747)" fill="#f5f5f5"/>
                <rect id="Rectangle_30" data-name="Rectangle 30" width="8.098" height="44.042" transform="translate(86.085 206.62)" fill="#f5f5f5"/>
                <rect id="Rectangle_31" data-name="Rectangle 31" width="8.098" height="44.042" transform="translate(86.085 275.493)" fill="#f5f5f5"/>
                <rect id="Rectangle_32" data-name="Rectangle 32" width="8.098" height="44.042" transform="translate(57.39)" fill="#f5f5f5"/>
                <rect id="Rectangle_33" data-name="Rectangle 33" width="8.098" height="44.042" transform="translate(57.39 68.873)" fill="#f5f5f5"/>
                <rect id="Rectangle_34" data-name="Rectangle 34" width="8.098" height="44.042" transform="translate(57.39 137.747)" fill="#f5f5f5"/>
                <rect id="Rectangle_35" data-name="Rectangle 35" width="8.098" height="44.042" transform="translate(57.39 206.62)" fill="#f5f5f5"/>
                <rect id="Rectangle_36" data-name="Rectangle 36" width="8.098" height="44.042" transform="translate(57.39 275.493)" fill="#f5f5f5"/>
                <rect id="Rectangle_37" data-name="Rectangle 37" width="8.098" height="44.042" transform="translate(28.695)" fill="#f5f5f5"/>
                <rect id="Rectangle_38" data-name="Rectangle 38" width="8.098" height="44.042" transform="translate(28.695 68.873)" fill="#f5f5f5"/>
                <rect id="Rectangle_39" data-name="Rectangle 39" width="8.098" height="44.042" transform="translate(28.695 137.747)" fill="#f5f5f5"/>
                <rect id="Rectangle_40" data-name="Rectangle 40" width="8.098" height="44.042" transform="translate(28.695 206.62)" fill="#f5f5f5"/>
                <rect id="Rectangle_41" data-name="Rectangle 41" width="8.098" height="44.042" transform="translate(28.695 275.493)" fill="#f5f5f5"/>
                <rect id="Rectangle_42" data-name="Rectangle 42" width="8.098" height="44.042" fill="#f5f5f5"/>
                <rect id="Rectangle_43" data-name="Rectangle 43" width="8.098" height="44.042" transform="translate(0 68.873)" fill="#f5f5f5"/>
                <rect id="Rectangle_44" data-name="Rectangle 44" width="8.098" height="44.042" transform="translate(0 137.747)" fill="#f5f5f5"/>
                <rect id="Rectangle_45" data-name="Rectangle 45" width="8.098" height="44.042" transform="translate(0 206.62)" fill="#f5f5f5"/>
                <rect id="Rectangle_46" data-name="Rectangle 46" width="8.098" height="44.042" transform="translate(0 275.493)" fill="#f5f5f5"/>
              </g>
              <path id="Path_427" data-name="Path 427" d="M273.168,224.213h35.04l15.237,361.912H273.168Z" transform="translate(-273.168 -224.213)" fill="#e0e0e0" opacity="0.5"/>
            </g>
            <g id="Group_140" data-name="Group 140" transform="translate(235.234 160.36)">
              <path id="Path_428" data-name="Path 428" d="M236.628,163.09l100.854,19.085V664.845H236.628Z" transform="translate(-155.945 -163.09)" fill="#f0f0f0"/>
              <rect id="Rectangle_47" data-name="Rectangle 47" width="80.683" height="501.755" transform="translate(0)" fill="#e6e6e6"/>
              <rect id="Rectangle_48" data-name="Rectangle 48" width="181.537" height="2.57" transform="translate(181.537 44.144) rotate(180)" fill="#e0e0e0"/>
              <rect id="Rectangle_49" data-name="Rectangle 49" width="181.537" height="2.57" transform="translate(181.537 71.465) rotate(180)" fill="#e0e0e0"/>
              <rect id="Rectangle_50" data-name="Rectangle 50" width="181.537" height="2.57" transform="translate(181.537 98.785) rotate(180)" fill="#e0e0e0"/>
              <rect id="Rectangle_51" data-name="Rectangle 51" width="181.537" height="2.57" transform="translate(181.537 126.106) rotate(180)" fill="#e0e0e0"/>
              <rect id="Rectangle_52" data-name="Rectangle 52" width="181.537" height="2.57" transform="translate(181.537 153.426) rotate(180)" fill="#e0e0e0"/>
              <rect id="Rectangle_53" data-name="Rectangle 53" width="181.537" height="2.57" transform="translate(181.537 180.746) rotate(180)" fill="#e0e0e0"/>
              <rect id="Rectangle_54" data-name="Rectangle 54" width="181.537" height="2.57" transform="translate(181.537 208.067) rotate(180)" fill="#e0e0e0"/>
              <rect id="Rectangle_55" data-name="Rectangle 55" width="181.537" height="2.57" transform="translate(181.537 235.387) rotate(180)" fill="#e0e0e0"/>
              <rect id="Rectangle_56" data-name="Rectangle 56" width="181.537" height="2.57" transform="translate(181.537 262.707) rotate(180)" fill="#e0e0e0"/>
              <rect id="Rectangle_57" data-name="Rectangle 57" width="181.537" height="2.57" transform="translate(181.537 290.028) rotate(180)" fill="#e0e0e0"/>
              <rect id="Rectangle_58" data-name="Rectangle 58" width="181.537" height="2.57" transform="translate(181.537 317.348) rotate(180)" fill="#e0e0e0"/>
              <rect id="Rectangle_59" data-name="Rectangle 59" width="181.537" height="2.57" transform="translate(181.537 344.669) rotate(180)" fill="#e0e0e0"/>
              <rect id="Rectangle_60" data-name="Rectangle 60" width="181.537" height="2.57" transform="translate(181.537 371.989) rotate(180)" fill="#e0e0e0"/>
              <rect id="Rectangle_61" data-name="Rectangle 61" width="181.537" height="2.57" transform="translate(181.537 399.309) rotate(180)" fill="#e0e0e0"/>
              <rect id="Rectangle_62" data-name="Rectangle 62" width="181.537" height="2.57" transform="translate(181.537 426.63) rotate(180)" fill="#e0e0e0"/>
              <rect id="Rectangle_63" data-name="Rectangle 63" width="181.537" height="2.57" transform="translate(181.537 453.95) rotate(180)" fill="#e0e0e0"/>
              <rect id="Rectangle_64" data-name="Rectangle 64" width="181.537" height="2.57" transform="translate(181.537 481.27) rotate(180)" fill="#e0e0e0"/>
            </g>
            <g id="Group_141" data-name="Group 141" transform="translate(106.746)">
              <rect id="Rectangle_65" data-name="Rectangle 65" width="84.357" height="608.392" transform="translate(0 53.723)" fill="#f0f0f0"/>
              <path id="Path_429" data-name="Path 429" d="M229.561,146.723H145.2L176.247,93h120.8Z" transform="translate(-145.203 -93)" fill="#fafafa"/>
              <path id="Path_430" data-name="Path 430" d="M182.074,146.723,249.56,93V755.115H182.074Z" transform="translate(-97.717 -93)" fill="#ebebeb"/>
              <rect id="Rectangle_66" data-name="Rectangle 66" width="151.843" height="3.239" transform="translate(0 82.07)" fill="#e0e0e0"/>
              <rect id="Rectangle_67" data-name="Rectangle 67" width="151.843" height="3.239" transform="translate(0 116.506)" fill="#e0e0e0"/>
              <rect id="Rectangle_68" data-name="Rectangle 68" width="151.843" height="3.24" transform="translate(0 150.943)" fill="#e0e0e0"/>
              <rect id="Rectangle_69" data-name="Rectangle 69" width="151.843" height="3.24" transform="translate(0 185.38)" fill="#e0e0e0"/>
              <rect id="Rectangle_70" data-name="Rectangle 70" width="151.843" height="3.24" transform="translate(0 219.816)" fill="#e0e0e0"/>
              <rect id="Rectangle_71" data-name="Rectangle 71" width="151.843" height="3.24" transform="translate(0 254.253)" fill="#e0e0e0"/>
              <rect id="Rectangle_72" data-name="Rectangle 72" width="151.843" height="3.24" transform="translate(0 288.689)" fill="#e0e0e0"/>
              <rect id="Rectangle_73" data-name="Rectangle 73" width="151.843" height="3.24" transform="translate(0 323.126)" fill="#e0e0e0"/>
              <rect id="Rectangle_74" data-name="Rectangle 74" width="151.843" height="3.239" transform="translate(0 357.563)" fill="#e0e0e0"/>
              <rect id="Rectangle_75" data-name="Rectangle 75" width="151.843" height="3.239" transform="translate(0 391.999)" fill="#e0e0e0"/>
              <rect id="Rectangle_76" data-name="Rectangle 76" width="151.843" height="3.239" transform="translate(0 426.436)" fill="#e0e0e0"/>
              <rect id="Rectangle_77" data-name="Rectangle 77" width="151.843" height="3.24" transform="translate(0 460.872)" fill="#e0e0e0"/>
              <rect id="Rectangle_78" data-name="Rectangle 78" width="151.843" height="3.24" transform="translate(0 495.309)" fill="#e0e0e0"/>
              <rect id="Rectangle_79" data-name="Rectangle 79" width="151.843" height="3.24" transform="translate(0 529.746)" fill="#e0e0e0"/>
              <rect id="Rectangle_80" data-name="Rectangle 80" width="151.843" height="3.24" transform="translate(0 564.182)" fill="#e0e0e0"/>
              <rect id="Rectangle_81" data-name="Rectangle 81" width="151.843" height="3.24" transform="translate(0 598.619)" fill="#e0e0e0"/>
              <rect id="Rectangle_82" data-name="Rectangle 82" width="151.843" height="3.24" transform="translate(0 633.055)" fill="#e0e0e0"/>
            </g>
            <g id="Group_142" data-name="Group 142" transform="translate(0 326.366)">
              <rect id="Rectangle_83" data-name="Rectangle 83" width="92.085" height="313.995" transform="translate(0 21.754)" fill="#f0f0f0"/>
              <rect id="Rectangle_84" data-name="Rectangle 84" width="14.779" height="50.394" transform="translate(18.127 37.986)" fill="#e6e6e6"/>
              <rect id="Rectangle_85" data-name="Rectangle 85" width="14.779" height="50.394" transform="translate(54.381 37.986)" fill="#e6e6e6"/>
              <rect id="Rectangle_86" data-name="Rectangle 86" width="14.779" height="50.394" transform="translate(18.127 103.248)" fill="#e6e6e6"/>
              <rect id="Rectangle_87" data-name="Rectangle 87" width="14.779" height="50.394" transform="translate(54.381 103.248)" fill="#e6e6e6"/>
              <rect id="Rectangle_88" data-name="Rectangle 88" width="14.779" height="50.394" transform="translate(18.127 168.511)" fill="#e6e6e6"/>
              <rect id="Rectangle_89" data-name="Rectangle 89" width="14.779" height="50.394" transform="translate(54.381 168.511)" fill="#e6e6e6"/>
              <rect id="Rectangle_90" data-name="Rectangle 90" width="14.779" height="50.394" transform="translate(18.127 233.773)" fill="#e6e6e6"/>
              <rect id="Rectangle_91" data-name="Rectangle 91" width="14.779" height="50.394" transform="translate(54.381 233.773)" fill="#e6e6e6"/>
              <path id="Path_431" data-name="Path 431" d="M190.631,257.4H98.546l21.6-21.754h92.085Z" transform="translate(-98.546 -235.648)" fill="#fff"/>
              <path id="Path_432" data-name="Path 432" d="M138.795,257.4l21.6-21.754L182,257.4v314h-43.2Z" transform="translate(-46.71 -235.648)" fill="#e6e6e6"/>
            </g>
          </g>
        </g>
      </g>
      <g id="Smartphone" transform="translate(568.142 142.381)">
        <g id="Group_147" data-name="Group 147" transform="translate(0)">
          <rect id="Rectangle_92" data-name="Rectangle 92" width="334.288" height="690.156" rx="9.289" transform="translate(13.211)" fill="#407bff"/>
          <g id="Group_145" data-name="Group 145" transform="translate(0)">
            <rect id="Rectangle_93" data-name="Rectangle 93" width="334.288" height="690.156" rx="9.289" fill="#407bff"/>
            <rect id="Rectangle_94" data-name="Rectangle 94" width="334.288" height="690.156" rx="9.289" fill="#fff" opacity="0.7"/>
          </g>
          <g id="Group_146" data-name="Group 146" opacity="0.9">
            <rect id="Rectangle_95" data-name="Rectangle 95" width="18.093" height="690.156" transform="translate(48.989)" fill="#fff"/>
            <rect id="Rectangle_96" data-name="Rectangle 96" width="11.097" height="690.156" transform="translate(247.477)" fill="#fff"/>
            <path id="Path_433" data-name="Path 433" d="M274.353,191.765v18.093L608.641,189.14V171.047Z" transform="translate(-274.353 -41.864)" fill="#fff"/>
            <rect id="Rectangle_97" data-name="Rectangle 97" width="18.093" height="334.288" transform="translate(0 595.527) rotate(-90)" fill="#fff"/>
            <rect id="Rectangle_98" data-name="Rectangle 98" width="9.856" height="334.288" transform="translate(0 250.09) rotate(-90)" fill="#fff"/>
            <path id="Path_434" data-name="Path 434" d="M274.353,385.235v20.718L608.642,292.841V272.122Z" transform="translate(-274.352 88.311)" fill="#fff"/>
            <path id="Path_435" data-name="Path 435" d="M335.744,114.583H317.651L366.285,804.74h18.093Z" transform="translate(-218.589 -114.583)" fill="#fff"/>
          </g>
        </g>
      </g>
    </g>
  </g>
</svg>
