<svg width="29" height="46" viewBox="0 0 29 46" fill="none" xmlns="http://www.w3.org/2000/svg">
<path d="M14.4381 45.1713C11.1033 45.1318 7.83837 44.7265 4.76313 43.3724C3.7547 42.9276 2.81615 42.3642 2.02738 41.5833C0.230161 39.8041 0.300053 37.6097 2.2071 35.9393C3.67482 34.6444 5.45207 33.9624 7.30919 33.4583C8.05803 33.2507 8.82684 33.1123 9.59564 32.9641C10.1049 32.8652 10.1348 32.8356 9.85524 32.3809C7.58875 28.6248 5.33225 24.8489 3.0458 21.1027C1.85764 19.1555 1.00895 17.0995 0.819248 14.8261C0.529697 11.1689 1.4982 7.86745 3.84456 5.01084C6.23086 2.12458 9.32606 0.434343 13.0703 0.0686187C20.5187 -0.652946 26.6193 4.40789 27.9073 10.9316C28.6261 14.5493 27.8873 17.8903 25.9403 20.994C23.5939 24.7402 21.2376 28.4864 18.8813 32.2326C18.4919 32.8454 18.4919 32.8257 19.2008 32.9443C21.597 33.3495 23.9135 33.9822 25.9403 35.3759C26.9587 36.0777 27.7974 36.9376 28.087 38.183C28.3765 39.4186 27.9073 40.4466 27.0885 41.3461C26.12 42.4136 24.8819 43.0857 23.564 43.6096C21.3674 44.4794 19.071 44.8946 16.7246 45.0725C15.9758 45.1417 15.2069 45.1713 14.4381 45.1713ZM14.2285 36.4137C14.3982 36.3742 14.4182 36.2655 14.4681 36.1864C17.8129 30.8587 21.1677 25.531 24.5125 20.2131C26.16 17.5937 26.8689 14.7668 26.3796 11.6828C25.3113 5.03061 18.6516 0.13781 11.3829 2.04551C3.59494 4.09159 0.0404556 12.8393 4.14409 19.6892C7.13945 24.6908 10.1548 29.6725 13.1601 34.6642C13.5196 35.2474 13.879 35.8404 14.2285 36.4137ZM14.4381 43.5305C15.1371 43.5305 15.836 43.491 16.5249 43.4416C18.1723 43.3328 19.7898 43.0857 21.3774 42.631C22.905 42.1961 24.3727 41.6228 25.5908 40.5652C26.8189 39.4977 26.8189 38.2621 25.6208 37.1946C25.1016 36.73 24.5125 36.3643 23.8835 36.0579C21.9765 35.1287 19.9396 34.7037 17.8628 34.4072C17.5733 34.3676 17.4535 34.5357 17.3237 34.7433C16.5948 35.9096 15.8659 37.0661 15.1371 38.2226C14.5879 39.1023 13.9289 39.0924 13.3898 38.2127C12.7008 37.0661 12.0019 35.9294 11.323 34.7828C11.1732 34.5258 11.0334 34.4171 10.6939 34.4665C9.70547 34.6049 8.72699 34.7927 7.76848 35.0497C6.20091 35.4747 4.69324 36.0381 3.42521 37.0661C2.08728 38.1534 2.0773 39.4977 3.37529 40.6146C4.18403 41.2966 5.10261 41.781 6.09108 42.1467C8.77691 43.1747 11.5826 43.5009 14.4381 43.5305Z" fill="#FFEAEA"/>
<path d="M14.4586 8.59863C17.2243 8.60852 19.5108 10.8325 19.4808 13.5507C19.4509 16.3777 17.2543 18.5226 14.4286 18.5325C11.6829 18.5424 9.40643 16.2294 9.4264 13.5409C9.44637 10.8127 11.7129 8.59863 14.4586 8.59863ZM17.8034 13.5507C17.7934 11.6727 16.3557 10.2592 14.4386 10.2592C12.5416 10.2691 11.1038 11.7023 11.1138 13.5903C11.1238 15.4486 12.6214 16.9213 14.4786 16.9016C16.3557 16.8719 17.8034 15.409 17.8034 13.5507Z" fill="#FFEAEA"/>
</svg>
