<svg width="33" height="36" viewBox="0 0 33 36" fill="none" xmlns="http://www.w3.org/2000/svg">
<g clip-path="url(#clip0)">
<path d="M11.1266 23.1538C11.0674 23.0426 10.949 23.023 10.8569 22.9707C7.2531 21.015 5.05003 18.039 4.40555 14.0099C3.48487 8.28024 6.82564 2.66833 12.3958 0.71266C19.5048 -1.78589 27.0544 2.51135 28.5275 9.86963C29.56 15.0106 27.0347 20.3282 22.3589 22.8595C22.2011 22.9445 21.9315 22.9837 21.9446 23.1603C21.9512 23.3042 22.234 23.3042 22.3918 23.3696C27.62 25.3972 31.112 29.0666 32.8613 34.3645C32.9468 34.6196 33.0323 34.8878 32.9863 35.1625C32.9008 35.6334 32.493 35.9801 32.0195 35.9932C31.5526 36.0128 31.0857 35.6727 30.9673 35.2083C30.3689 32.9452 29.2312 30.9765 27.6529 29.2628C25.1144 26.4961 21.9578 24.8413 18.2158 24.4488C13.2178 23.9191 8.98925 25.5804 5.5301 29.1778C3.89917 30.8784 2.76147 32.8733 2.05123 35.1167C1.84078 35.7708 1.28837 36.1044 0.729386 35.9408C0.20328 35.7839 -0.105808 35.3195 0.0257188 34.7831C0.387417 33.3442 0.979286 31.9968 1.74214 30.7279C3.87945 27.1698 6.91771 24.6843 10.8372 23.2781C10.9424 23.2584 11.0542 23.2519 11.1266 23.1538ZM26.6861 12.1654C26.7585 6.98519 22.5694 2.02734 16.4928 2.01426C10.7912 2.00772 6.26008 6.52734 6.2798 12.1916C6.29953 18.2156 11.2712 22.3362 16.4994 22.3297C22.0827 22.3231 26.7453 17.7381 26.6861 12.1654Z" fill="white"/>
</g>
<defs>
<clipPath id="clip0">
<rect width="33" height="36" fill="white"/>
</clipPath>
</defs>
</svg>
