<svg width="50" height="49" viewBox="0 0 50 49" fill="none" xmlns="http://www.w3.org/2000/svg">
<path d="M9.07191 6.53552C9.33302 5.32875 10.1008 4.31087 11.4046 3.67961C12.2274 3.27984 13.0139 2.82658 13.8027 2.36537C16.0948 1.02925 18.9985 1.79639 20.489 4.14412C21.1382 5.15698 21.4524 6.25407 21.402 7.47848C21.3432 9.06182 21.3869 10.6489 21.3201 12.2299C21.2359 14.0813 20.3834 15.5135 18.7592 16.4483C18.1801 16.7806 17.6034 17.105 17.0176 17.4009C16.7452 17.5376 16.6448 17.7066 16.6524 18.0099C16.6996 21.4735 17.5614 24.7157 19.2847 27.7241C20.8977 30.5459 23.0808 32.8263 25.809 34.5926C26.1083 34.782 26.327 34.802 26.6291 34.6222C27.1716 34.2966 27.7335 33.9938 28.2932 33.6989C29.9925 32.803 31.6953 32.8544 33.3526 33.8134C34.8244 34.6673 36.2711 35.5484 37.7109 36.4533C40.364 38.1205 41.3694 42.3332 38.5189 44.7992C38.1518 45.115 37.7062 45.3137 37.2833 45.5533C36.4604 46.0133 35.6341 46.4551 34.8191 46.9173C33.9221 47.4248 32.9493 47.5061 32.011 47.2274C24.1464 44.8943 17.8859 40.3473 13.3674 33.4971C9.39925 27.4936 7.6404 20.8614 7.94497 13.6876C8.04684 11.3252 8.42886 9.00891 9.07191 6.53552Z" fill="white"/>
</svg>
