<svg width="44" height="40" viewBox="0 0 44 40" fill="none" xmlns="http://www.w3.org/2000/svg">
<g clip-path="url(#clip0)">
<path d="M7.23547 20.2C7.81903 19.5165 8.37924 18.8093 9.00948 18.1729C9.54635 17.6308 10.1766 17.5129 10.7601 18.0786C11.3204 18.6679 11.2036 19.3043 10.6901 19.8465C9.33627 21.2607 7.95908 22.6278 6.55855 24.0185C5.92831 24.6549 5.25139 24.6314 4.59781 24.0185C3.22062 22.6278 1.84343 21.2371 0.466242 19.8465C-0.0706285 19.3043 -0.210682 18.6679 0.349531 18.0786C0.909743 17.4894 1.58667 17.5836 2.10019 18.1258C2.75378 18.7858 3.31399 19.54 4.08428 20.1529C4.41107 18.6915 4.45775 17.3244 4.73786 16.0044C6.81531 6.08099 15.3819 -0.495322 25.5824 0.0232407C34.896 0.494661 42.9257 8.39095 43.8827 18.0551C44.793 27.1063 39.3543 35.7097 30.7877 38.8211C22.3612 41.8854 12.7909 38.7504 7.79569 31.2784C7.60895 30.9955 7.42221 30.6891 7.28216 30.3591C7.04874 29.817 7.21213 29.3456 7.65563 28.992C8.14582 28.6149 8.70603 28.6384 9.14953 29.0627C9.45298 29.3456 9.6864 29.7463 9.91982 30.0998C14.1681 36.0633 21.5209 38.8211 28.4769 37.0062C35.5029 35.1676 40.5914 29.2749 41.4551 21.9678C42.5755 12.4452 35.8763 3.88889 26.2593 2.54534C17.2259 1.29608 8.49595 7.91953 7.04874 17.0651C6.88534 18.0315 6.74529 18.9979 6.90868 19.9643C7.00205 20.035 7.11876 20.1057 7.23547 20.2Z" fill="white"/>
<path d="M31.652 24.4903C31.4419 24.4196 31.0918 24.3253 30.7883 24.1839C28.6175 23.241 26.4467 22.2982 24.2525 21.3789C23.5056 21.0725 23.0621 20.5775 22.8287 19.7996C21.895 16.8533 20.9146 13.9305 19.9342 10.9841C19.6541 10.1355 19.5141 9.28698 20.5645 8.95698C21.6149 8.62699 21.965 9.45198 22.2451 10.3005C23.1088 12.9405 23.9958 15.5804 24.8361 18.2204C25.0462 18.8804 25.443 19.2575 26.0499 19.5168C28.0806 20.3654 30.1114 21.2611 32.1422 22.1803C32.7257 22.4396 33.0992 22.8875 32.9358 23.571C32.8191 24.1603 32.3989 24.4431 31.652 24.4903Z" fill="white"/>
</g>
<defs>
<clipPath id="clip0">
<rect width="44" height="40" fill="white"/>
</clipPath>
</defs>
</svg>
