<svg width="46" height="46" viewBox="0 0 46 46" fill="none" xmlns="http://www.w3.org/2000/svg">
<g clip-path="url(#clip0)">
<path d="M0.0598145 18.5999C0.279052 17.1599 0.578012 15.7399 1.11614 14.3799C2.57108 10.6999 5.04248 7.83988 8.23139 5.57988C11.6395 3.15988 15.4264 1.75988 19.552 1.21988C25.0927 0.499876 30.3744 1.41988 35.3172 4.05988C39.0841 6.07988 42.1534 8.85988 44.0867 12.7199C47.0763 18.6799 46.5382 24.4599 42.7513 29.8999C39.7219 34.2399 35.4368 36.8599 30.4342 38.3799C27.903 39.1399 25.312 39.4799 22.6612 39.4599C20.2894 39.4199 17.9376 39.0799 15.6456 38.4199C15.3267 38.3199 15.0875 38.3599 14.8085 38.5399C11.1413 40.6599 7.4541 42.7599 3.78685 44.8799C3.50782 45.0399 3.24872 45.2199 2.9099 45.1999C2.17247 45.1799 1.73399 44.4599 2.03295 43.7399C2.77039 41.9399 3.52775 40.1399 4.26519 38.3599C4.88304 36.8599 5.50089 35.3799 6.13867 33.8799C6.27819 33.5599 6.21839 33.3799 5.95929 33.1599C2.79032 30.2599 0.876972 26.6799 0.21926 22.4399C0.179399 22.1399 0.119606 21.8599 0.0797451 21.5599C0.0598145 20.5799 0.0598145 19.5799 0.0598145 18.5999ZM5.06241 41.6799C5.26172 41.6999 5.36137 41.5999 5.48096 41.5399C8.45063 39.8399 11.4203 38.1399 14.37 36.4399C14.7687 36.1999 15.1473 36.1399 15.6057 36.2799C18.3362 37.1399 21.1265 37.4999 23.9766 37.3799C26.0295 37.2999 28.0425 37.0199 30.0156 36.4399C34.4004 35.1599 38.2071 32.9399 40.9177 29.1599C44.4654 24.1999 44.9636 18.8999 42.2531 13.3999C40.539 9.91988 37.7288 7.45988 34.3206 5.67988C30.474 3.67988 26.3683 2.87988 22.0433 3.01988C19.3128 3.11988 16.6421 3.59988 14.091 4.55988C10.1049 6.11988 6.77645 8.49988 4.42463 12.1599C2.47143 15.1999 1.6742 18.5399 2.1924 22.1399C2.77039 26.1999 4.68373 29.5199 7.85271 32.1199C8.61007 32.7399 8.66987 32.9999 8.29118 33.8999C7.55375 35.6799 6.81631 37.4599 6.07888 39.2399C5.74006 40.0399 5.40124 40.8599 5.06241 41.6799Z" fill="white"/>
<path d="M22.9801 20.2397C19.5122 20.2397 16.0243 20.2397 12.5564 20.2397C11.799 20.2397 11.3406 19.6597 11.52 18.9797C11.6396 18.5197 12.078 18.2397 12.676 18.2397C14.39 18.2397 16.104 18.2397 17.8181 18.2397C22.8805 18.2397 27.9429 18.2397 32.9853 18.2397C33.1448 18.2397 33.3241 18.2397 33.4836 18.2397C34.1214 18.2997 34.5 18.7197 34.4801 19.3397C34.4602 19.8997 34.0616 20.2397 33.4238 20.2397C29.9359 20.2397 26.468 20.2397 22.9801 20.2397Z" fill="white"/>
<path d="M22.9601 25.9999C19.4922 25.9999 16.0442 25.9999 12.5763 25.9999C11.8388 25.9999 11.4003 25.5199 11.5 24.8399C11.5598 24.3399 11.9783 23.9999 12.5962 23.9999C13.5728 23.9799 14.5693 23.9999 15.5459 23.9999C21.4454 23.9999 27.325 23.9999 33.2244 23.9999C33.3042 23.9999 33.4038 23.9999 33.4835 23.9999C34.0815 24.0599 34.4801 24.4999 34.4601 25.0799C34.4402 25.6399 34.0416 25.9999 33.4237 26.0199C31.5503 26.0199 29.6568 26.0199 27.7834 26.0199C26.1889 25.9999 24.5745 25.9999 22.9601 25.9999Z" fill="white"/>
<path d="M20.0901 14.4997C17.6387 14.4997 15.2071 14.4997 12.7556 14.4997C11.9185 14.4997 11.5 14.1797 11.5 13.5197C11.5 12.8597 11.9584 12.4797 12.7955 12.4797C16.4827 12.4797 20.1698 12.4797 23.857 12.4797C25.1127 12.4797 26.3683 12.4797 27.6239 12.4797C28.3215 12.4797 28.76 12.8797 28.7799 13.4797C28.7998 14.1197 28.4012 14.4997 27.7036 14.4997C25.4315 14.4997 23.1594 14.4997 20.9073 14.4997C20.6083 14.4997 20.3492 14.4997 20.0901 14.4997Z" fill="white"/>
</g>
<defs>
<clipPath id="clip0">
<rect width="46" height="46" fill="white"/>
</clipPath>
</defs>
</svg>
